<?xml version="1.0" standalone="no"?>
<!DOCTYPE svg PUBLIC "-//W3C//DTD SVG 20010904//EN"
 "http://www.w3.org/TR/2001/REC-SVG-20010904/DTD/svg10.dtd">
<svg version="1.0" xmlns="http://www.w3.org/2000/svg"
 width="700.000000pt" height="700.000000pt" viewBox="0 0 700.000000 700.000000"
 preserveAspectRatio="xMidYMid meet">
<metadata>
Created by potrace 1.14, written by Peter Selinger 2001-2017
</metadata>
<g transform="translate(0.000000,700.000000) scale(0.100000,-0.100000)"
fill="#000000" stroke="none">
<path d="M0 3500 l0 -3500 3500 0 3500 0 0 3500 0 3500 -3500 0 -3500 0 0
-3500z m2194 1272 c256 -72 419 -226 471 -445 20 -85 19 -264 -3 -348 -23 -85
-74 -169 -141 -230 -84 -77 -240 -144 -386 -165 l-50 -7 35 -12 c106 -37 199
-105 264 -194 20 -26 127 -223 240 -437 l204 -389 161 -3 161 -2 0 -85 0 -85
-311 2 -310 3 -215 410 c-239 455 -282 528 -348 597 -94 99 -172 118 -488 118
l-228 0 0 -480 0 -480 185 0 185 0 0 -85 0 -85 -525 0 -525 0 0 85 0 85 165 0
165 0 0 1045 0 1045 -165 0 -165 0 0 85 0 86 773 -3 c764 -3 773 -4 851 -26z
m2268 -832 c248 -470 453 -858 457 -862 3 -3 211 383 461 858 l455 864 358 0
357 0 0 -85 0 -85 -175 0 -175 0 0 -1045 0 -1045 170 0 170 0 0 -85 0 -85
-510 0 -510 0 0 85 0 85 165 0 165 0 0 937 c0 515 -3 933 -7 929 -4 -3 -205
-383 -448 -844 l-441 -837 -124 0 -124 0 -441 837 c-242 460 -443 840 -447
844 -5 4 -8 -414 -8 -929 l0 -937 165 0 165 0 0 -85 0 -85 -440 0 -441 0 3 83
3 82 168 3 167 2 0 1045 0 1045 -175 0 -175 0 0 85 0 85 380 -2 381 -3 451
-855z"/>
<path d="M1252 4153 l3 -478 240 -3 c457 -6 596 27 701 165 64 84 78 140 79
308 0 119 -4 161 -18 205 -43 127 -116 199 -253 247 l-79 27 -338 4 -337 4 2
-479z"/>
</g>
</svg>
